<svg xmlns="http://www.w3.org/2000/svg" viewBox="0 0 1200 700" width="1200" height="700" font-family="'JetBrains Mono','SF Mono','Cascadia Code',ui-monospace,Menlo,Consolas,monospace" role="img" aria-label="mTerminal — animated mock of the terminal app">
  <defs>
    <linearGradient id="winbg" x1="0" y1="0" x2="0" y2="1">
      <stop offset="0" stop-color="#101010"/>
      <stop offset="1" stop-color="#0a0a0a"/>
    </linearGradient>
    <linearGradient id="sidebg" x1="0" y1="0" x2="1" y2="0">
      <stop offset="0" stop-color="#0e0e0e"/>
      <stop offset="1" stop-color="#0b0b0b"/>
    </linearGradient>
    <linearGradient id="amber" x1="0" y1="0" x2="1" y2="1">
      <stop offset="0" stop-color="#f5b056"/>
      <stop offset="1" stop-color="#ed8757"/>
    </linearGradient>
    <linearGradient id="bar" x1="0" y1="0" x2="1" y2="0">
      <stop offset="0" stop-color="#ed8757"/>
      <stop offset="1" stop-color="#f5cf6d"/>
    </linearGradient>
    <radialGradient id="glow" cx="0.5" cy="0" r="1">
      <stop offset="0" stop-color="#f5b056" stop-opacity="0.18"/>
      <stop offset="0.6" stop-color="#f5b056" stop-opacity="0"/>
    </radialGradient>
    <filter id="shadow" x="-30%" y="-30%" width="160%" height="160%">
      <feDropShadow dx="0" dy="18" stdDeviation="34" flood-color="#000" flood-opacity="0.55"/>
    </filter>
    <filter id="soft"><feGaussianBlur stdDeviation="7"/></filter>
    <clipPath id="winClip"><rect x="18" y="16" width="1164" height="668" rx="16"/></clipPath>

    <clipPath id="cl1"><rect x="350" y="0" height="700"><animate attributeName="width" values="0;0;236;236;0" keyTimes="0;0.04;0.13;0.985;1" dur="16s" repeatCount="indefinite"/></rect></clipPath>
    <clipPath id="cl5"><rect x="350" y="0" height="700"><animate attributeName="width" values="0;0;205;205;0" keyTimes="0;0.36;0.45;0.985;1" dur="16s" repeatCount="indefinite"/></rect></clipPath>
  </defs>

  <!-- ambient glow -->
  <rect x="40" y="0" width="1120" height="380" fill="url(#glow)" filter="url(#soft)">
    <animate attributeName="opacity" values="0.65;1;0.65" dur="6s" repeatCount="indefinite"/>
  </rect>

  <!-- window shell -->
  <g filter="url(#shadow)">
    <rect x="18" y="16" width="1164" height="668" rx="16" fill="url(#winbg)" stroke="#fafafa1a" stroke-width="1"/>
  </g>
  <rect x="18.5" y="16.5" width="1163" height="667" rx="15.5" fill="none" stroke="#f5b056" stroke-opacity="0.10" stroke-width="1"/>

  <g clip-path="url(#winClip)">
    <!-- ───────── titlebar (38px) ───────── -->
    <line x1="18" y1="56" x2="1182" y2="56" stroke="#fafafa14"/>
    <!-- sidebar toggle icon -->
    <g transform="translate(40,29)" stroke="#aeaeae" stroke-width="1.3" fill="none">
      <rect x="0" y="0" width="16" height="13" rx="2"/>
      <line x1="6" y1="0" x2="6" y2="13"/>
      <rect x="1" y="1" width="4" height="11" fill="#aeaeae" stroke="none" opacity="0.4"/>
    </g>
    <text x="600" y="41" text-anchor="middle" fill="#717171" font-size="13" letter-spacing="0.3">arthur@cachyos: ~/code/mTerminal — mTerminal</text>
    <!-- window controls -->
    <g stroke="#aeaeae" stroke-width="1.3" fill="none" stroke-linecap="round">
      <line x1="1086" y1="36" x2="1098" y2="36"/>
      <rect x="1118" y="30" width="12" height="12" rx="1.5"/>
      <g><line x1="1150" y1="30" x2="1162" y2="42"/><line x1="1162" y1="30" x2="1150" y2="42"/>
        <animate attributeName="stroke" values="#aeaeae;#aeaeae;#ff5f56;#aeaeae" keyTimes="0;0.9;0.95;1" dur="16s" repeatCount="indefinite"/>
      </g>
    </g>

    <!-- ───────── sidebar (300px) ───────── -->
    <rect x="18" y="56" width="300" height="628" fill="url(#sidebg)"/>
    <line x1="318" y1="56" x2="318" y2="684" stroke="#fafafa14"/>

    <!-- sidebar header -->
    <text x="40" y="98" fill="#ebebeb" font-family="'Inter',system-ui,sans-serif" font-size="15" font-weight="600">arthur@cachyos</text>
    <text x="40" y="118" fill="#717171" font-size="11.5">~/code/mTerminal</text>
    <line x1="18" y1="134" x2="318" y2="134" stroke="#fafafa14"/>

    <!-- section label -->
    <text x="40" y="162" fill="#717171" font-family="'Inter',system-ui,sans-serif" font-size="11" font-weight="600" letter-spacing="1.6">WORKSPACE</text>

    <!-- group: dev (orange) -->
    <g>
      <rect x="26" y="174" width="284" height="120" rx="6" fill="#ed8757" fill-opacity="0.06"/>
      <rect x="26" y="174" width="2" height="120" rx="1" fill="#ed8757"/>
      <g transform="translate(40,188)" fill="#ed8757">
        <path d="M0 2 L4 6 L0 10" stroke="#ed8757" stroke-width="1.4" fill="none" stroke-linecap="round" stroke-linejoin="round" transform="rotate(90 2 6)"/>
        <text x="16" y="10" font-family="'Inter',system-ui,sans-serif" font-size="12.5" font-weight="600">dev</text>
        <text x="252" y="10" fill="#717171" font-size="11" text-anchor="end">3</text>
      </g>

      <!-- tab: zsh -->
      <g opacity="0">
        <animate attributeName="opacity" values="0;0;1;1;0" keyTimes="0;0.02;0.06;0.985;1" dur="16s" repeatCount="indefinite"/>
        <animateTransform attributeName="transform" type="translate" values="-10,0;-10,0;0,0;0,0" keyTimes="0;0.02;0.06;1" dur="16s" repeatCount="indefinite" additive="sum"/>
        <circle cx="58" cy="216" r="3.2" fill="#ed8757"/>
        <text x="74" y="220" fill="#aeaeae" font-size="11" font-family="'JetBrains Mono',monospace">1</text>
        <text x="92" y="220" fill="#aeaeae" font-family="'Inter',system-ui,sans-serif" font-size="12.5">zsh</text>
      </g>

      <!-- tab: claude (active, thinking) -->
      <g opacity="0">
        <animate attributeName="opacity" values="0;0;1;1;0" keyTimes="0;0.04;0.08;0.985;1" dur="16s" repeatCount="indefinite"/>
        <rect x="34" y="232" width="268" height="26" rx="4" fill="#ffffff1f"/>
        <rect x="38" y="237" width="2" height="16" rx="1" fill="#ed8757"/>
        <!-- pulsing thinking dot -->
        <circle cx="58" cy="245" r="3.2" fill="#f5cf6d"/>
        <circle cx="58" cy="245" r="3.2" fill="none" stroke="#f5cf6d" stroke-width="1.5">
          <animate attributeName="r" values="3.2;8;3.2" dur="1.4s" repeatCount="indefinite"/>
          <animate attributeName="opacity" values="0.7;0;0.7" dur="1.4s" repeatCount="indefinite"/>
        </circle>
        <text x="74" y="249" fill="#ed8757" font-size="11" font-family="'JetBrains Mono',monospace">2</text>
        <text x="92" y="249" fill="#ebebeb" font-family="'Inter',system-ui,sans-serif" font-size="12.5">claude</text>
        <!-- mini spinner -->
        <g transform="translate(290,245)">
          <circle r="5.5" fill="none" stroke="#f5cf6d" stroke-width="1.6" stroke-dasharray="18 16" stroke-linecap="round">
            <animateTransform attributeName="transform" type="rotate" from="0" to="360" dur="0.9s" repeatCount="indefinite"/>
          </circle>
        </g>
      </g>

      <!-- tab: nvim (idle) -->
      <g opacity="0">
        <animate attributeName="opacity" values="0;0;1;1;0" keyTimes="0;0.06;0.10;0.985;1" dur="16s" repeatCount="indefinite"/>
        <circle cx="58" cy="276" r="3.2" fill="#555555"/>
        <text x="74" y="280" fill="#aeaeae" font-size="11" font-family="'JetBrains Mono',monospace">3</text>
        <text x="92" y="280" fill="#aeaeae" font-family="'Inter',system-ui,sans-serif" font-size="12.5">nvim</text>
      </g>
    </g>

    <!-- group: ops (blue) -->
    <g>
      <g transform="translate(40,318)">
        <path d="M0 2 L4 6 L0 10" stroke="#7eb1ee" stroke-width="1.4" fill="none" stroke-linecap="round" stroke-linejoin="round" transform="rotate(90 2 6)"/>
        <text x="16" y="10" fill="#7eb1ee" font-family="'Inter',system-ui,sans-serif" font-size="12.5" font-weight="600">ops</text>
        <text x="252" y="10" fill="#717171" font-size="11" text-anchor="end">2</text>
      </g>

      <!-- tab: ssh prod (awaiting input) -->
      <g opacity="0">
        <animate attributeName="opacity" values="0;0;1;1;0" keyTimes="0;0.08;0.12;0.985;1" dur="16s" repeatCount="indefinite"/>
        <circle cx="58" cy="346" r="3.2" fill="#7eb1ee"/>
        <circle cx="58" cy="346" r="3.2" fill="none" stroke="#7eb1ee" stroke-width="1.5">
          <animate attributeName="r" values="3.2;8;3.2" dur="0.9s" repeatCount="indefinite"/>
          <animate attributeName="opacity" values="0.8;0;0.8" dur="0.9s" repeatCount="indefinite"/>
        </circle>
        <text x="74" y="350" fill="#aeaeae" font-size="11" font-family="'JetBrains Mono',monospace">4</text>
        <text x="92" y="350" fill="#aeaeae" font-family="'Inter',system-ui,sans-serif" font-size="12.5">ssh prod</text>
      </g>

      <!-- tab: docker logs (idle) -->
      <g opacity="0">
        <animate attributeName="opacity" values="0;0;1;1;0" keyTimes="0;0.10;0.14;0.985;1" dur="16s" repeatCount="indefinite"/>
        <circle cx="58" cy="378" r="3.2" fill="#555555"/>
        <text x="74" y="382" fill="#aeaeae" font-size="11" font-family="'JetBrains Mono',monospace">5</text>
        <text x="92" y="382" fill="#aeaeae" font-family="'Inter',system-ui,sans-serif" font-size="12.5">docker logs</text>
      </g>
    </g>

    <!-- sidebar footer: settings -->
    <line x1="18" y1="640" x2="318" y2="640" stroke="#fafafa14"/>
    <g transform="translate(40,652)" stroke="#717171" stroke-width="1.3" fill="none">
      <circle cx="8" cy="9" r="3"/>
      <circle cx="8" cy="9" r="7"/>
    </g>
    <text x="62" y="667" fill="#717171" font-family="'Inter',system-ui,sans-serif" font-size="12">settings</text>

    <!-- ───────── terminal ───────── -->
    <!-- L1 command -->
    <text x="350" y="118" fill="#ed8757" font-size="16" font-weight="700">❯</text>
    <g clip-path="url(#cl1)"><text x="374" y="118" fill="#ebebeb" font-size="16">pnpm rebuild node-pty</text></g>
    <rect x="372" y="105" width="9" height="18" fill="#f5b056">
      <animateTransform attributeName="transform" type="translate" values="0,0;0,0;202,0;202,0" keyTimes="0;0.04;0.13;1" dur="16s" repeatCount="indefinite"/>
      <animate attributeName="opacity" values="0;0;1;1;0;1;0;0" keyTimes="0;0.04;0.13;0.14;0.16;0.18;0.20;1" dur="16s" repeatCount="indefinite"/>
    </rect>

    <!-- L2 output -->
    <text x="374" y="148" fill="#717171" font-size="15" opacity="0">rebuilding node-pty against electron abi…
      <animate attributeName="opacity" values="0;0;1;1;0" keyTimes="0;0.14;0.17;0.985;1" dur="16s" repeatCount="indefinite"/>
    </text>

    <!-- L3 progress bar -->
    <g opacity="0">
      <animate attributeName="opacity" values="0;0;1;1;0" keyTimes="0;0.16;0.18;0.985;1" dur="16s" repeatCount="indefinite"/>
      <rect x="374" y="166" width="300" height="9" rx="4.5" fill="#222222"/>
      <rect x="374" y="166" height="9" rx="4.5" fill="url(#bar)">
        <animate attributeName="width" values="0;0;300;300;0" keyTimes="0;0.18;0.30;0.985;1" dur="16s" repeatCount="indefinite"/>
      </rect>
      <text x="690" y="176" fill="#aeaeae" font-size="13" font-family="'JetBrains Mono',monospace">
        <animate attributeName="opacity" values="0;1;1" keyTimes="0;0.30;1" dur="16s" repeatCount="indefinite"/>100%</text>
    </g>

    <!-- L4 done -->
    <g opacity="0">
      <animate attributeName="opacity" values="0;0;1;1;0" keyTimes="0;0.31;0.34;0.985;1" dur="16s" repeatCount="indefinite"/>
      <text x="350" y="206" fill="#6dd5a4" font-size="16">✓</text>
      <text x="374" y="206" fill="#aeaeae" font-size="15">rebuilt against electron 42 abi in 4.21s</text>
    </g>

    <!-- L5 command claude -->
    <g opacity="0">
      <animate attributeName="opacity" values="0;0;1;1;0" keyTimes="0;0.35;0.36;0.985;1" dur="16s" repeatCount="indefinite"/>
      <text x="350" y="246" fill="#ed8757" font-size="16" font-weight="700">❯</text>
    </g>
    <g clip-path="url(#cl5)"><text x="374" y="246" fill="#ebebeb" font-size="16">claude --resume</text></g>
    <rect x="372" y="233" width="9" height="18" fill="#f5b056">
      <animateTransform attributeName="transform" type="translate" values="0,0;0,0;170,0;170,0" keyTimes="0;0.36;0.45;1" dur="16s" repeatCount="indefinite"/>
      <animate attributeName="opacity" values="0;0;1;1;0;1;0;0" keyTimes="0;0.36;0.45;0.46;0.48;0.50;0.52;1" dur="16s" repeatCount="indefinite"/>
    </rect>

    <!-- L6 spinner + thinking -->
    <g opacity="0">
      <animate attributeName="opacity" values="0;0;1;1;0;0" keyTimes="0;0.47;0.49;0.62;0.63;1" dur="16s" repeatCount="indefinite"/>
      <g transform="translate(357,279)">
        <circle r="6.5" fill="none" stroke="#f5b056" stroke-width="1.8" stroke-dasharray="22 18" stroke-linecap="round">
          <animateTransform attributeName="transform" type="rotate" from="0" to="360" dur="0.9s" repeatCount="indefinite"/>
        </circle>
      </g>
      <text x="374" y="284" fill="#f5cf6d" font-size="15">planning the refactor</text>
      <text x="560" y="284" fill="#717171" font-size="14">(esc to interrupt)</text>
    </g>

    <!-- L7 assistant response -->
    <g opacity="0">
      <animate attributeName="opacity" values="0;0;1;1;0" keyTimes="0;0.63;0.66;0.985;1" dur="16s" repeatCount="indefinite"/>
      <circle cx="356" cy="280" r="4" fill="#c79cf2"/>
      <text x="372" y="285" fill="#c79cf2" font-size="15" font-weight="600">opus-4.7</text>
      <text x="468" y="285" fill="#717171" font-size="13">· 5 tabs · vault unlocked · mcp up</text>
      <text x="350" y="318" fill="#ebebeb" font-size="15">I'll extract the pty walk into a pure helper, then</text>
      <text x="350" y="344" fill="#ebebeb" font-size="15">wire the IPC handler to it and add a vitest spec.</text>
    </g>

    <!-- final prompt + blinking block caret -->
    <g opacity="0">
      <animate attributeName="opacity" values="0;0;1;1;0" keyTimes="0;0.67;0.68;0.985;1" dur="16s" repeatCount="indefinite"/>
      <text x="350" y="386" fill="#ed8757" font-size="16" font-weight="700">❯</text>
      <rect x="374" y="373" width="9" height="18" fill="#f5b056">
        <animate attributeName="opacity" values="1;1;0;0;1" keyTimes="0;0.45;0.5;0.95;1" dur="1.1s" repeatCount="indefinite"/>
      </rect>
    </g>

    <!-- ───────── group grid view (transition scene) ───────── -->
    <!-- dark backdrop: wipes the single-terminal session and forms the gutters -->
    <rect x="319" y="57" width="862" height="601" fill="#060606" opacity="0">
      <animate attributeName="opacity" values="0;0;1;1;0" keyTimes="0;0.695;0.74;0.985;1" dur="16s" repeatCount="indefinite"/>
    </rect>

    <g opacity="0">
      <animate attributeName="opacity" values="0;0;1;1;0" keyTimes="0;0.705;0.75;0.985;1" dur="16s" repeatCount="indefinite"/>

      <!-- pane: zsh (top-left) -->
      <g>
        <animateTransform attributeName="transform" type="translate" values="26,16;26,16;0,0;0,0;26,16" keyTimes="0;0.705;0.775;0.985;1" dur="16s" repeatCount="indefinite"/>
        <rect x="324" y="64" width="424" height="290" rx="6" fill="#161616" stroke="#fafafa30"/>
        <rect x="325" y="65" width="422" height="23" rx="5" fill="#202020"/>
        <line x1="324" y1="88" x2="748" y2="88" stroke="#fafafa14"/>
        <g fill="#8f8f8f"><circle cx="338" cy="72" r="1"/><circle cx="343" cy="72" r="1"/><circle cx="338" cy="76.5" r="1"/><circle cx="343" cy="76.5" r="1"/><circle cx="338" cy="81" r="1"/><circle cx="343" cy="81" r="1"/></g>
        <text x="356" y="80" fill="#ebebeb" font-family="'Inter',system-ui,sans-serif" font-size="11" font-weight="500">zsh</text>
        <text x="378" y="80" fill="#8f8f8f" font-family="'Inter',system-ui,sans-serif" font-size="11">~/code/mTerminal</text>
        <g transform="translate(672,70)" stroke="#717171" stroke-width="1.3" fill="none" stroke-linecap="round" opacity="0.5">
          <path transform="scale(0.7)" d="M2 6V2h4M14 6V2h-4M2 10v4h4M14 10v4h-4"/>
          <path transform="translate(22,0) scale(0.7)" d="M11 2.5l2.5 2.5L5.5 13H3v-2.5l8-8z" stroke-linejoin="round"/>
          <path transform="translate(44,0) scale(0.7)" d="M4 4l8 8M12 4l-8 8"/>
        </g>
        <text x="340" y="116" fill="#ed8757" font-size="13" font-weight="700">❯</text>
        <text x="358" y="116" fill="#ebebeb" font-size="13">git status</text>
        <text x="340" y="138" fill="#6dd5a4" font-size="13">On branch master</text>
        <text x="340" y="158" fill="#717171" font-size="13">nothing to commit, working tree clean</text>
        <text x="340" y="186" fill="#ed8757" font-size="13" font-weight="700">❯</text>
        <rect x="358" y="175" width="7" height="14" fill="#f5b056"><animate attributeName="opacity" values="1;1;0;0;1" keyTimes="0;0.45;0.5;0.95;1" dur="1.1s" repeatCount="indefinite"/></rect>
      </g>

      <!-- pane: claude (top-right, focused / accent border) -->
      <g>
        <animateTransform attributeName="transform" type="translate" values="-26,16;-26,16;0,0;0,0;-26,16" keyTimes="0;0.705;0.775;0.985;1" dur="16s" repeatCount="indefinite"/>
        <rect x="752" y="64" width="424" height="290" rx="6" fill="#161616" stroke="#ed8757" stroke-width="1.5"/>
        <rect x="753" y="65" width="422" height="23" rx="5" fill="#202020"/>
        <line x1="752" y1="88" x2="1176" y2="88" stroke="#fafafa14"/>
        <g fill="#aeaeae"><circle cx="766" cy="72" r="1"/><circle cx="771" cy="72" r="1"/><circle cx="766" cy="76.5" r="1"/><circle cx="771" cy="76.5" r="1"/><circle cx="766" cy="81" r="1"/><circle cx="771" cy="81" r="1"/></g>
        <text x="784" y="80" fill="#ebebeb" font-family="'Inter',system-ui,sans-serif" font-size="11" font-weight="500">claude</text>
        <text x="830" y="80" fill="#8f8f8f" font-family="'Inter',system-ui,sans-serif" font-size="11">~/code/mTerminal</text>
        <g transform="translate(1100,70)" stroke="#aeaeae" stroke-width="1.3" fill="none" stroke-linecap="round" opacity="0.9">
          <path transform="scale(0.7)" d="M2 6V2h4M14 6V2h-4M2 10v4h4M14 10v4h-4"/>
          <path transform="translate(22,0) scale(0.7)" d="M11 2.5l2.5 2.5L5.5 13H3v-2.5l8-8z" stroke-linejoin="round"/>
          <path transform="translate(44,0) scale(0.7)" d="M4 4l8 8M12 4l-8 8"/>
        </g>
        <circle cx="772" cy="112" r="4" fill="#c79cf2"/>
        <text x="786" y="116" fill="#c79cf2" font-size="13" font-weight="600">opus-4.7</text>
        <g transform="translate(775,144)">
          <circle r="6" fill="none" stroke="#f5b056" stroke-width="1.7" stroke-dasharray="20 16" stroke-linecap="round">
            <animateTransform attributeName="transform" type="rotate" from="0" to="360" dur="0.9s" repeatCount="indefinite"/>
          </circle>
        </g>
        <text x="790" y="149" fill="#f5cf6d" font-size="13">analyzing pty.ts</text>
        <text x="920" y="149" fill="#717171" font-size="12">(esc to interrupt)</text>
      </g>

      <!-- pane: nvim (bottom, spans both columns) -->
      <g>
        <animateTransform attributeName="transform" type="translate" values="0,-22;0,-22;0,0;0,0;0,-22" keyTimes="0;0.705;0.775;0.985;1" dur="16s" repeatCount="indefinite"/>
        <rect x="324" y="358" width="852" height="292" rx="6" fill="#161616" stroke="#fafafa30"/>
        <rect x="325" y="359" width="850" height="23" rx="5" fill="#202020"/>
        <line x1="324" y1="382" x2="1176" y2="382" stroke="#fafafa14"/>
        <g fill="#8f8f8f"><circle cx="338" cy="366" r="1"/><circle cx="343" cy="366" r="1"/><circle cx="338" cy="370.5" r="1"/><circle cx="343" cy="370.5" r="1"/><circle cx="338" cy="375" r="1"/><circle cx="343" cy="375" r="1"/></g>
        <text x="356" y="374" fill="#ebebeb" font-family="'Inter',system-ui,sans-serif" font-size="11" font-weight="500">nvim</text>
        <text x="390" y="374" fill="#8f8f8f" font-family="'Inter',system-ui,sans-serif" font-size="11">electron/main/pty.ts</text>
        <g transform="translate(1100,364)" stroke="#717171" stroke-width="1.3" fill="none" stroke-linecap="round" opacity="0.5">
          <path transform="scale(0.7)" d="M2 6V2h4M14 6V2h-4M2 10v4h4M14 10v4h-4"/>
          <path transform="translate(22,0) scale(0.7)" d="M11 2.5l2.5 2.5L5.5 13H3v-2.5l8-8z" stroke-linejoin="round"/>
          <path transform="translate(44,0) scale(0.7)" d="M4 4l8 8M12 4l-8 8"/>
        </g>
        <g font-size="13" font-family="'JetBrains Mono',monospace">
          <text x="346" y="410" fill="#3d3d3d">1</text><text x="372" y="410"><tspan fill="#c79cf2">export function</tspan> <tspan fill="#7eb1ee">ptyInfo</tspan><tspan fill="#aeaeae">(id: </tspan><tspan fill="#7ed7d3">number</tspan><tspan fill="#aeaeae">) {</tspan></text>
          <text x="346" y="432" fill="#3d3d3d">2</text><text x="372" y="432" fill="#aeaeae">  <tspan fill="#c79cf2">const</tspan> tree = <tspan fill="#7eb1ee">pidtree</tspan>(pid);</text>
          <text x="346" y="454" fill="#3d3d3d">3</text><text x="372" y="454" fill="#aeaeae">  <tspan fill="#c79cf2">return</tspan> <tspan fill="#7eb1ee">newestLeaf</tspan>(tree);</text>
          <text x="346" y="476" fill="#3d3d3d">4</text><text x="372" y="476" fill="#aeaeae">}</text>
        </g>
        <!-- vim statusline -->
        <rect x="325" y="626" width="850" height="23" rx="5" fill="#101010"/>
        <rect x="325" y="626" width="86" height="23" rx="5" fill="#6dd5a4"/>
        <text x="338" y="641" fill="#0c0c0c" font-size="11" font-weight="700" letter-spacing="0.4">NORMAL</text>
        <text x="424" y="641" fill="#aeaeae" font-size="11" font-family="'JetBrains Mono',monospace">pty.ts</text>
        <text x="1164" y="641" fill="#717171" font-size="11" font-family="'JetBrains Mono',monospace" text-anchor="end">utf-8 · ln 3, col 11</text>
      </g>
    </g>

    <!-- ───────── status bar (26px) ───────── -->
    <line x1="18" y1="658" x2="1182" y2="658" stroke="#fafafa14"/>
    <rect x="18" y="658" width="120" height="26" fill="url(#amber)"/>
    <text x="32" y="675" fill="#0c0c0c" font-size="11" font-weight="700" letter-spacing="0.6">ZSH · DEV
      <animate attributeName="opacity" values="1;1;0;0;1" keyTimes="0;0.70;0.745;0.985;1" dur="16s" repeatCount="indefinite"/></text>
    <text x="32" y="675" fill="#0c0c0c" font-size="11" font-weight="700" letter-spacing="0.6" opacity="0">DEV · 3 PANES
      <animate attributeName="opacity" values="0;0;1;1;0" keyTimes="0;0.745;0.78;0.985;1" dur="16s" repeatCount="indefinite"/></text>
    <line x1="138" y1="658" x2="138" y2="684" stroke="#fafafa14"/>
    <text x="150" y="675" fill="#717171" font-size="11">~/code/mTerminal</text>
    <line x1="270" y1="658" x2="270" y2="684" stroke="#fafafa14"/>
    <text x="282" y="675" fill="#717171" font-size="11">pnpm</text>
    <line x1="332" y1="658" x2="332" y2="684" stroke="#fafafa14"/>
    <text x="344" y="675" fill="#717171" font-size="11">UTF-8</text>

    <text x="900" y="675" fill="#717171" font-size="11" text-anchor="end">5 tabs · 2 groups</text>
    <line x1="912" y1="658" x2="912" y2="684" stroke="#fafafa14"/>
    <!-- ai cost counting up -->
    <text x="924" y="675" fill="#717171" font-size="11">ai <tspan fill="#ebebeb" font-weight="600">
      <animate attributeName="opacity" values="1" dur="16s" repeatCount="indefinite"/>$0.000</tspan></text>
    <g font-size="11" font-weight="600" fill="#ebebeb">
      <text x="945" y="675"><animate attributeName="opacity" values="1;1;0;0" keyTimes="0;0.30;0.31;1" dur="16s" repeatCount="indefinite"/>$0.004</text>
      <text x="945" y="675" opacity="0"><animate attributeName="opacity" values="0;0;1;1;0;0" keyTimes="0;0.31;0.32;0.49;0.50;1" dur="16s" repeatCount="indefinite"/>$0.021</text>
      <text x="945" y="675" opacity="0"><animate attributeName="opacity" values="0;0;1;1;0;0" keyTimes="0;0.50;0.51;0.65;0.66;1" dur="16s" repeatCount="indefinite"/>$0.058</text>
      <text x="945" y="675" opacity="0"><animate attributeName="opacity" values="0;0;1;1" keyTimes="0;0.66;0.67;1" dur="16s" repeatCount="indefinite"/>$0.112</text>
    </g>
    <line x1="1010" y1="658" x2="1010" y2="684" stroke="#fafafa14"/>
    <!-- clock with blinking colon -->
    <g font-family="'JetBrains Mono',monospace" font-size="11" fill="#aeaeae">
      <text x="1140" y="675" text-anchor="end">14</text>
      <text x="1142" y="675">32</text>
      <text x="1138" y="675"><animate attributeName="opacity" values="1;1;0;0;1" keyTimes="0;0.45;0.5;0.95;1" dur="2s" repeatCount="indefinite"/>:</text>
    </g>
  </g>
</svg>
